<svg xmlns="http://www.w3.org/2000/svg" width="40" height="37" fill="none" viewBox="0 0 40 37">
  <path fill="#CA6B6E" fill-rule="evenodd" d="M20 2.585C29.666-2.363 35.577.479 38.055 5.35c1.324 2.604 2.39 7.223 1.758 12.043h-8.958l-1.17-2.436c-.483-1.151-2.102-1.272-2.733-.161l-.954 1.681-1.955-7.775c-.314-1.565-2.554-1.658-2.976-.1l-2.094 7.702-.693-2.566c-.309-1.157-1.802-1.536-2.616-.616l-3.79 4.271H.187c-.632-4.82.434-9.44 1.758-12.043C4.423.479 10.334-2.363 20 2.585Zm19.171 17.87c-2.071 7.068-12.748 15.317-19.17 16.454C13.577 35.771 2.9 27.523.828 20.455h11.726c.503 0 .95-.243 1.228-.617l2.283-2.573 1.423 5.294c.404 1.51 2.547 1.495 2.952.005l2.046-7.519 1.475 5.87c.346 1.384 2.223 1.566 2.85.313l1.356-2.389.357.743c.261.547.806.867 1.375.867l9.271.006Z" clip-rule="evenodd"/>
</svg>
